<?xml version="1.0" standalone="no"?>
<!DOCTYPE svg PUBLIC "-//W3C//DTD SVG 20010904//EN"
 "http://www.w3.org/TR/2001/REC-SVG-20010904/DTD/svg10.dtd">
<svg version="1.0" xmlns="http://www.w3.org/2000/svg"
 width="975.000000pt" height="241.000000pt" viewBox="0 0 975.000000 241.000000"
 preserveAspectRatio="xMidYMid meet">

<g transform="translate(0.000000,241.000000) scale(0.100000,-0.100000)"
fill="#000000" stroke="none">
<path d="M0 1577 l0 -833 4875 -2 4875 -3 0 835 0 836 -4875 0 -4875 0 0 -833z
m3227 458 c88 -17 205 -70 245 -112 l27 -28 -48 -54 -47 -54 -55 42 c-175 133
-422 118 -589 -36 -195 -180 -200 -515 -11 -704 135 -134 339 -173 550 -103
l81 27 -2 180 -3 180 -130 1 -130 1 0 65 0 65 203 3 202 2 0 -292 0 -293 -42
-19 c-196 -86 -417 -107 -590 -57 -263 76 -429 304 -428 589 2 401 355 675
767 597z m-2801 -157 c54 -79 123 -180 154 -225 30 -45 58 -82 62 -83 4 0 76
101 159 225 l153 225 89 0 c70 0 87 -3 80 -12 -10 -13 -320 -445 -362 -506
l-23 -33 55 -82 c30 -45 125 -181 211 -302 85 -121 156 -223 156 -227 0 -5
-40 -8 -88 -8 l-89 0 -169 255 c-93 140 -173 253 -179 251 -5 -1 -86 -116
-178 -254 l-168 -252 -85 0 c-46 0 -84 2 -84 5 0 3 26 42 58 87 62 87 343 495
355 515 4 7 -64 112 -169 260 -97 136 -185 260 -196 276 l-19 27 90 0 90 0 97
-142z m1429 127 c203 -42 359 -180 422 -370 22 -68 26 -98 26 -200 1 -105 -3
-130 -27 -200 -15 -44 -41 -101 -57 -126 -47 -74 -140 -156 -221 -194 -118
-56 -179 -65 -465 -65 l-253 0 0 585 0 585 253 0 c182 0 271 -4 322 -15z"/>
<path d="M1425 1879 c-3 -8 -4 -212 -3 -454 l3 -440 150 -3 c179 -3 269 9 352
48 166 77 256 270 225 483 -26 177 -115 293 -270 349 -48 18 -86 22 -254 26
-160 3 -199 2 -203 -9z"/>
<path d="M1012 393 c3 -220 4 -228 23 -228 18 0 20 8 25 98 5 93 7 100 33 123
34 29 70 31 97 4 17 -17 20 -33 20 -125 l0 -105 25 0 25 0 0 100 c0 109 -14
161 -48 179 -34 18 -97 13 -126 -10 l-26 -20 0 105 0 106 -25 0 -25 0 2 -227z"/>
<path d="M2054 607 c-2 -7 -3 -109 -2 -227 3 -214 3 -215 26 -218 l22 -3 0
230 c0 226 0 231 -20 231 -11 0 -23 -6 -26 -13z"/>
<path d="M60 565 c0 -24 2 -25 70 -25 l70 0 2 -187 c3 -186 3 -188 26 -191
l22 -3 0 190 0 191 70 0 c68 0 70 1 70 25 l0 25 -165 0 -165 0 0 -25z"/>
<path d="M2931 572 c-7 -14 -6 -24 4 -38 18 -25 50 -7 50 27 0 31 -39 39 -54
11z"/>
<path d="M433 430 c-47 -29 -67 -65 -67 -124 0 -92 57 -150 144 -149 46 1 102
22 116 44 4 7 -1 18 -11 25 -15 11 -22 10 -43 -6 -27 -22 -82 -26 -113 -10
-16 9 -49 58 -49 75 0 3 52 5 115 5 l115 0 0 41 c0 35 -6 48 -39 80 -34 35
-44 39 -87 39 -31 0 -61 -7 -81 -20z m131 -41 c14 -11 26 -29 26 -40 0 -17 -8
-19 -89 -19 -85 0 -89 1 -84 20 14 55 98 77 147 39z"/>
<path d="M773 430 c-66 -40 -88 -117 -55 -193 29 -65 92 -94 166 -77 52 11 74
33 56 55 -11 14 -15 14 -36 0 -60 -39 -136 -4 -149 68 -17 87 66 155 137 114
23 -13 34 -15 44 -6 21 17 17 27 -16 44 -41 21 -108 19 -147 -5z"/>
<path d="M1427 430 c-30 -24 -37 -25 -37 -5 0 8 -9 15 -20 15 -20 0 -20 -5
-18 -137 3 -130 4 -138 23 -138 18 0 20 8 25 95 7 108 13 128 47 141 37 14 61
11 83 -11 17 -17 20 -33 20 -125 l0 -105 25 0 c25 0 25 0 25 99 0 54 -5 112
-11 130 -20 58 -111 81 -162 41z"/>
<path d="M1739 427 c-91 -61 -90 -181 3 -250 42 -31 127 -28 173 7 45 35 57
59 58 116 1 90 -60 150 -154 150 -31 0 -57 -7 -80 -23z m140 -33 c82 -58 46
-194 -51 -194 -47 0 -82 21 -98 60 -39 93 69 190 149 134z"/>
<path d="M2253 430 c-65 -39 -87 -110 -59 -185 41 -107 206 -121 266 -22 42
68 16 173 -51 209 -45 24 -115 23 -156 -2z m154 -55 c17 -19 23 -39 23 -71 0
-113 -147 -147 -190 -45 -18 45 -5 95 32 126 27 23 39 26 72 22 27 -4 49 -15
63 -32z"/>
<path d="M2609 427 c-89 -59 -89 -185 0 -244 45 -30 118 -31 155 -2 l26 20 0
-35 c0 -72 -35 -106 -107 -106 -20 0 -51 10 -70 21 -32 20 -36 21 -51 5 -16
-16 -15 -18 8 -36 37 -28 107 -41 160 -29 95 21 110 58 110 264 l0 155 -25 0
c-16 0 -25 -6 -25 -16 0 -13 -5 -12 -26 5 -37 29 -110 28 -155 -2z m152 -46
c24 -24 29 -38 29 -76 0 -95 -93 -138 -162 -76 -28 25 -33 36 -33 76 0 40 5
51 33 76 44 40 93 40 133 0z"/>
<path d="M3144 440 c-32 -13 -72 -67 -80 -105 -15 -82 36 -166 109 -178 75
-12 166 32 138 67 -12 14 -16 14 -38 -4 -53 -41 -140 -15 -158 48 -6 22 -6 22
109 22 l116 0 0 25 c0 43 -27 94 -62 115 -34 21 -96 26 -134 10z m121 -55 c46
-46 35 -55 -65 -55 -58 0 -90 4 -90 11 0 6 13 24 29 40 38 38 91 40 126 4z"/>
<path d="M3432 430 c-30 -19 -33 -24 -30 -63 3 -37 7 -44 38 -59 19 -10 47
-20 62 -23 27 -5 58 -29 58 -45 0 -36 -88 -54 -120 -25 -19 17 -50 10 -50 -11
0 -25 48 -47 106 -47 70 0 106 30 106 87 0 49 -14 63 -81 82 -31 9 -62 22 -70
30 -13 12 -12 16 4 34 22 24 52 26 83 5 17 -13 26 -14 44 -4 l22 12 -28 23
c-35 31 -98 32 -144 4z"/>
<path d="M2938 300 c3 -131 4 -140 23 -140 18 0 19 8 19 140 0 139 0 140 -22
140 -23 0 -23 -1 -20 -140z"/>
</g>
</svg>
